<?xml version="1.0" standalone="no"?>
<!DOCTYPE svg PUBLIC "-//W3C//DTD SVG 20010904//EN"
 "http://www.w3.org/TR/2001/REC-SVG-20010904/DTD/svg10.dtd">
<svg version="1.0" xmlns="http://www.w3.org/2000/svg"
 width="367.000000pt" height="261.000000pt" viewBox="0 0 367.000000 261.000000"
 preserveAspectRatio="xMidYMid meet">
<defs xmlns="http://www.w3.org/2000/svg">  
        <linearGradient id="logo-gradient" x1="0%" y1="100%" x2="50%" y2="100%"> 
            
            <stop offset="0%" stop-color="#B1EF0B">
                <animate attributeName="stop-color" values="#b1ef0b; #f9e80a; #b1ef0b" dur="0.5s" repeatCount="indefinite"/>
            </stop>

            <stop offset="100%" stop-color="#FCE80A">
                <animate attributeName="stop-color" values="#f9e80a; #b1ef0b; #f9e80a" dur="0.5s" repeatCount="indefinite"/>
            </stop>

        </linearGradient> 

    </defs>
<g  fill="url(#logo-gradient)" transform="translate(0.000000,261.000000) scale(0.100000,-0.100000)" stroke="none">
<path d="M245 2288 c-132 -176 -242 -325 -243 -329 -2 -5 724 -9 1627 -9
l1630 0 12 23 c7 12 46 74 87 137 41 63 103 158 137 210 135 206 175 271 175
280 0 7 -575 10 -1592 9 l-1593 0 -240 -321z"/>
<path d="M905 1867 c-16 -12 -35 -26 -41 -32 -6 -5 -39 -30 -72 -55 l-61 -45
-1 -507 c0 -280 2 -508 5 -508 6 0 89 51 167 103 l47 32 1 518 c0 284 -3 517
-7 517 -5 0 -21 -11 -38 -23z"/>
<path d="M1190 1371 l0 -520 99 -66 c55 -36 104 -65 110 -65 8 0 11 152 11
504 l0 504 -97 74 c-54 41 -104 78 -110 82 -10 6 -13 -100 -13 -513z"/>
<path d="M2259 1872 c-14 -9 -60 -39 -103 -67 l-76 -50 0 -517 c0 -285 3 -518
6 -518 4 0 53 35 110 78 l103 77 1 508 c0 279 -3 507 -7 506 -5 0 -20 -8 -34
-17z"/>
<path d="M2540 1383 l0 -508 24 -15 c14 -8 61 -43 105 -77 44 -35 83 -63 86
-63 3 0 5 233 5 518 l-1 517 -32 23 c-53 38 -171 112 -179 112 -5 0 -8 -228
-8 -507z"/>
<path d="M994 1686 c-28 -28 -34 -42 -34 -76 0 -34 6 -48 34 -76 92 -92 222
18 161 136 -32 62 -108 69 -161 16z"/>
<path d="M2349 1691 c-25 -25 -29 -37 -29 -81 0 -45 4 -56 31 -81 46 -42 99
-41 145 5 28 28 34 42 34 76 0 34 -6 48 -34 76 -46 46 -104 48 -147 5z"/>
<path d="M1655 1571 c-52 -24 -121 -99 -134 -147 -27 -96 0 -217 60 -270 84
-75 183 -92 272 -48 68 34 94 59 123 117 52 101 37 201 -40 285 -53 58 -105
82 -181 82 -37 0 -75 -7 -100 -19z"/>
<path d="M994 1406 c-28 -28 -34 -42 -34 -76 0 -34 6 -48 34 -76 54 -54 129
-43 165 23 38 72 -13 162 -92 163 -31 0 -46 -7 -73 -34z"/>
<path d="M2351 1411 c-27 -25 -31 -36 -31 -81 0 -45 4 -55 32 -81 46 -42 95
-40 142 5 30 28 36 40 36 76 0 34 -6 48 -34 76 -46 46 -99 47 -145 5z"/>
<path d="M1014 1149 c-50 -25 -68 -102 -36 -152 45 -68 104 -77 158 -23 29 29
34 41 34 81 0 38 -5 52 -29 76 -31 31 -84 38 -127 18z"/>
<path d="M2349 1131 c-24 -24 -29 -38 -29 -76 0 -40 5 -52 34 -81 48 -48 86
-46 137 5 53 52 54 98 5 147 -46 46 -104 48 -147 5z"/>
<path d="M399 638 c-11 -22 -34 -57 -214 -333 -147 -225 -185 -286 -185 -295
0 -7 570 -9 1592 -8 l1593 3 242 320 c133 176 242 323 242 328 1 4 -732 7
-1629 7 l-1629 0 -12 -22z"/>
</g>
</svg>
